<svg xmlns="http://www.w3.org/2000/svg" viewBox="0 0 240 240" width="240" height="240">
  
  <circle cx="120" cy="120" r="110" fill="#F4C2C2"></circle>
  
  <ellipse cx="120" cy="172" rx="78" ry="10" fill="#FBF5EC" stroke="#2B1E1A" stroke-width="2"></ellipse>
  
  <path d="M56 166 Q56 160 64 160 L176 160 Q184 160 184 166 L184 168 Q184 172 176 172 L64 172 Q56 172 56 168 Z" fill="#FBF5EC" stroke="#2B1E1A" stroke-width="2"></path>
  
  <path d="M60 160 Q 72 140 90 150 Q 108 138 126 150 Q 144 138 160 150 Q 172 142 180 160 Z" fill="#FEF5F5" stroke="#2B1E1A" stroke-width="2" stroke-linejoin="round"></path>
  
  <g stroke="#2B1E1A" stroke-width="2">
    <path d="M92 134 q8 -10 16 0 q-4 12 -8 12 q-4 0 -8 -12z" fill="#B84A39"></path>
    <path d="M120 128 q8 -10 16 0 q-4 12 -8 12 q-4 0 -8 -12z" fill="#CA5A49"></path>
    <path d="M148 134 q8 -10 16 0 q-4 12 -8 12 q-4 0 -8 -12z" fill="#B84A39"></path>
    
    <path d="M96 134 q4 -4 8 0 q-2 -6 -4 -6 q-2 0 -4 6z" fill="#8A8B5C" stroke="none"></path>
    <path d="M124 128 q4 -4 8 0 q-2 -6 -4 -6 q-2 0 -4 6z" fill="#8A8B5C" stroke="none"></path>
    <path d="M152 134 q4 -4 8 0 q-2 -6 -4 -6 q-2 0 -4 6z" fill="#8A8B5C" stroke="none"></path>
  </g>
  
  <g fill="#B84A39">
    <circle cx="40" cy="80" r="3"></circle>
    <circle cx="200" cy="70" r="2"></circle>
    <circle cx="210" cy="130" r="3"></circle>
    <circle cx="30" cy="150" r="2"></circle>
  </g>
</svg>