<svg xmlns="http://www.w3.org/2000/svg" viewBox="0 0 160 160" width="160" height="160">
  <circle cx="80" cy="80" r="72" fill="#F9DCDC"></circle>
  
  <path d="M48 80 L112 80 L104 120 Q104 124 100 124 L60 124 Q56 124 56 120 Z" fill="#EBDEC3" stroke="#2B1E1A" stroke-width="2" stroke-linejoin="round"></path>
  
  <g stroke="#2B1E1A" stroke-width="1.5">
    <line x1="66" y1="82" x2="63" y2="124"></line>
    <line x1="80" y1="82" x2="80" y2="124"></line>
    <line x1="94" y1="82" x2="97" y2="124"></line>
  </g>
  
  <path d="M48 80 Q52 60 68 58 Q72 44 84 46 Q94 40 102 50 Q116 52 114 70 Q118 76 112 80 Z" fill="#F4C2C2" stroke="#2B1E1A" stroke-width="2" stroke-linejoin="round"></path>
  
  <circle cx="88" cy="48" r="6" fill="#B84A39" stroke="#2B1E1A" stroke-width="2"></circle>
  <path d="M88 42 Q92 38 94 36" stroke="#8A8B5C" stroke-width="2" fill="none"></path>
</svg>